solid Onshape
  facet normal 0 0 -1
    outer loop
      vertex 11.8453 13 0
      vertex 13 15 0
      vertex 15 15 0
    endloop
  endfacet
  facet normal 0 0 -1
    outer loop
      vertex -11.8453 13 0
      vertex -10.6906 15 0
      vertex 10.6906 15 0
    endloop
  endfacet
  facet normal 0 0 -1
    outer loop
      vertex -11.8453 -13 0
      vertex -13 -15 0
      vertex -15 -15 0
    endloop
  endfacet
  facet normal 0 0 -1
    outer loop
      vertex 10.6906 -15 0
      vertex -10.6906 -15 0
      vertex 11.8453 -13 0
    endloop
  endfacet
  facet normal 0 0 -1
    outer loop
      vertex -10.6906 -15 0
      vertex -11.8453 -13 0
      vertex 11.8453 -13 0
    endloop
  endfacet
  facet normal 0 0 -1
    outer loop
      vertex 11.8453 -13 0
      vertex -11.8453 -13 0
      vertex 11.8453 13 0
    endloop
  endfacet
  facet normal 0 0 -1
    outer loop
      vertex -13 -5.42101e-16 0
      vertex -15 1.1547 0
      vertex -11.8453 13 0
    endloop
  endfacet
  facet normal 0 0 -1
    outer loop
      vertex -15 1.1547 0
      vertex -15 15 0
      vertex -11.8453 13 0
    endloop
  endfacet
  facet normal 0 0 -1
    outer loop
      vertex -11.8453 13 0
      vertex -15 15 0
      vertex -13 15 0
    endloop
  endfacet
  facet normal 0 0 -1
    outer loop
      vertex 11.8453 13 0
      vertex 15 15 0
      vertex 11.8453 -13 0
    endloop
  endfacet
  facet normal 0 0 -1
    outer loop
      vertex 15 15 0
      vertex 15 -15 0
      vertex 11.8453 -13 0
    endloop
  endfacet
  facet normal 0 0 -1
    outer loop
      vertex 11.8453 -13 0
      vertex 15 -15 0
      vertex 13 -15 0
    endloop
  endfacet
  facet normal 0 0 -1
    outer loop
      vertex 10.6906 15 0
      vertex 11.8453 13 0
      vertex -11.8453 13 0
    endloop
  endfacet
  facet normal 0 0 -1
    outer loop
      vertex 11.8453 13 0
      vertex -11.8453 -13 0
      vertex -11.8453 13 0
    endloop
  endfacet
  facet normal 0 0 -1
    outer loop
      vertex -11.8453 13 0
      vertex -11.8453 -13 0
      vertex -13 -5.42101e-16 0
    endloop
  endfacet
  facet normal 0 0 -1
    outer loop
      vertex -11.8453 -13 0
      vertex -15 -15 0
      vertex -13 -5.42101e-16 0
    endloop
  endfacet
  facet normal 0 0 -1
    outer loop
      vertex -13 -5.42101e-16 0
      vertex -15 -15 0
      vertex -15 -1.1547 0
    endloop
  endfacet
  facet normal 0 0 -1
    outer loop
      vertex 15 15 0
      vertex 15.6543 14.9857 0
      vertex 15 -15 0
    endloop
  endfacet
  facet normal 0 0 -1
    outer loop
      vertex 15.6543 14.9857 0
      vertex 16.3073 14.9429 0
      vertex 15 -15 0
    endloop
  endfacet
  facet normal 0 0 -1
    outer loop
      vertex 15 -15 0
      vertex 16.3073 14.9429 0
      vertex 16.9579 14.8717 0
    endloop
  endfacet
  facet normal 0 0 -1
    outer loop
      vertex 16.9579 14.8717 0
      vertex 17.6047 14.7721 0
      vertex 15 -15 0
    endloop
  endfacet
  facet normal 0 0 -1
    outer loop
      vertex 17.6047 14.7721 0
      vertex 18.2466 14.6444 0
      vertex 15 -15 0
    endloop
  endfacet
  facet normal 0 0 -1
    outer loop
      vertex 15 -15 0
      vertex 18.2466 14.6444 0
      vertex 18.8823 14.4889 0
    endloop
  endfacet
  facet normal 0 0 -1
    outer loop
      vertex 24.6418 11.4907 0
      vertex 25.1339 11.0592 0
      vertex 15 -15 0
    endloop
  endfacet
  facet normal 0 0 -1
    outer loop
      vertex 25.1339 11.0592 0
      vertex 25.6066 10.6066 0
      vertex 15 -15 0
    endloop
  endfacet
  facet normal 0 0 -1
    outer loop
      vertex 15 -15 0
      vertex 25.6066 10.6066 0
      vertex 26.0592 10.1339 0
    endloop
  endfacet
  facet normal 0 0 -1
    outer loop
      vertex 26.0592 10.1339 0
      vertex 26.4907 9.64181 0
      vertex 15 -15 0
    endloop
  endfacet
  facet normal 0 0 -1
    outer loop
      vertex 26.4907 9.64181 0
      vertex 26.9003 9.13142 0
      vertex 15 -15 0
    endloop
  endfacet
  facet normal 0 0 -1
    outer loop
      vertex 15 -15 0
      vertex 26.9003 9.13142 0
      vertex 27.2873 8.60365 0
    endloop
  endfacet
  facet normal 0 0 -1
    outer loop
      vertex 27.2873 8.60365 0
      vertex 27.6509 8.05949 0
      vertex 15 -15 0
    endloop
  endfacet
  facet normal 0 0 -1
    outer loop
      vertex 27.6509 8.05949 0
      vertex 27.9904 7.5 0
      vertex 15 -15 0
    endloop
  endfacet
  facet normal 0 0 -1
    outer loop
      vertex 15 -15 0
      vertex 27.9904 7.5 0
      vertex 28.3052 6.92623 0
    endloop
  endfacet
  facet normal 0 0 -1
    outer loop
      vertex 15 -15 0
      vertex 22.5 12.9904 0
      vertex 23.0595 12.6509 0
    endloop
  endfacet
  facet normal 0 0 -1
    outer loop
      vertex 15 -15 0
      vertex 29.9429 -1.30734 0
      vertex 29.8717 -1.95789 0
    endloop
  endfacet
  facet normal 0 0 -1
    outer loop
      vertex 29.8717 -1.95789 0
      vertex 29.7721 -2.60472 0
      vertex 15 -15 0
    endloop
  endfacet
  facet normal 0 0 -1
    outer loop
      vertex 29.7721 -2.60472 0
      vertex 29.6444 -3.24659 0
      vertex 15 -15 0
    endloop
  endfacet
  facet normal 0 0 -1
    outer loop
      vertex 15 -15 0
      vertex 29.6444 -3.24659 0
      vertex 29.4889 -3.88229 0
    endloop
  endfacet
  facet normal 0 0 -1
    outer loop
      vertex 29.4889 -3.88229 0
      vertex 29.3058 -4.51059 0
      vertex 15 -15 0
    endloop
  endfacet
  facet normal 0 0 -1
    outer loop
      vertex 29.3058 -4.51059 0
      vertex 29.0954 -5.1303 0
      vertex 15 -15 0
    endloop
  endfacet
  facet normal 0 0 -1
    outer loop
      vertex 15 -15 0
      vertex 29.0954 -5.1303 0
      vertex 28.8582 -5.74025 0
    endloop
  endfacet
  facet normal 0 0 -1
    outer loop
      vertex 23.0595 12.6509 0
      vertex 23.6036 12.2873 0
      vertex 15 -15 0
    endloop
  endfacet
  facet normal 0 0 -1
    outer loop
      vertex 23.6036 12.2873 0
      vertex 24.1314 11.9003 0
      vertex 15 -15 0
    endloop
  endfacet
  facet normal 0 0 -1
    outer loop
      vertex 15 -15 0
      vertex 24.1314 11.9003 0
      vertex 24.6418 11.4907 0
    endloop
  endfacet
  facet normal 0 0 -1
    outer loop
      vertex 27.2873 -8.60365 0
      vertex 15 -15 0
      vertex 27.6509 -8.05949 0
    endloop
  endfacet
  facet normal 0 0 -1
    outer loop
      vertex 15 -15 0
      vertex 27.9904 -7.5 0
      vertex 27.6509 -8.05949 0
    endloop
  endfacet
  facet normal 0 0 -1
    outer loop
      vertex 27.2873 -8.60365 0
      vertex 26.9003 -9.13142 0
      vertex 15 -15 0
    endloop
  endfacet
  facet normal 0 0 -1
    outer loop
      vertex 26.9003 -9.13142 0
      vertex 26.4907 -9.64181 0
      vertex 15 -15 0
    endloop
  endfacet
  facet normal 0 0 -1
    outer loop
      vertex 15 -15 0
      vertex 26.4907 -9.64181 0
      vertex 26.0592 -10.1339 0
    endloop
  endfacet
  facet normal 0 0 -1
    outer loop
      vertex 26.0592 -10.1339 0
      vertex 25.6066 -10.6066 0
      vertex 15 -15 0
    endloop
  endfacet
  facet normal 0 0 -1
    outer loop
      vertex 25.6066 -10.6066 0
      vertex 25.1339 -11.0592 0
      vertex 15 -15 0
    endloop
  endfacet
  facet normal 0 0 -1
    outer loop
      vertex 15 -15 0
      vertex 25.1339 -11.0592 0
      vertex 24.6418 -11.4907 0
    endloop
  endfacet
  facet normal 0 0 -1
    outer loop
      vertex 24.6418 -11.4907 0
      vertex 24.1314 -11.9003 0
      vertex 15 -15 0
    endloop
  endfacet
  facet normal 0 0 -1
    outer loop
      vertex 24.1314 -11.9003 0
      vertex 23.6036 -12.2873 0
      vertex 15 -15 0
    endloop
  endfacet
  facet normal 0 0 -1
    outer loop
      vertex 15 -15 0
      vertex 23.6036 -12.2873 0
      vertex 15.6543 -14.9857 0
    endloop
  endfacet
  facet normal 0 0 -1
    outer loop
      vertex 23.6036 -12.2873 0
      vertex 23.0595 -12.6509 0
      vertex 15.6543 -14.9857 0
    endloop
  endfacet
  facet normal 0 0 -1
    outer loop
      vertex 20.7403 13.8582 0
      vertex 21.3393 13.5946 0
      vertex 15 -15 0
    endloop
  endfacet
  facet normal 0 0 -1
    outer loop
      vertex 21.3393 13.5946 0
      vertex 21.9262 13.3052 0
      vertex 15 -15 0
    endloop
  endfacet
  facet normal 0 0 -1
    outer loop
      vertex 15 -15 0
      vertex 21.9262 13.3052 0
      vertex 22.5 12.9904 0
    endloop
  endfacet
  facet normal 0 0 -1
    outer loop
      vertex 15 -15 0
      vertex 29.0954 5.1303 0
      vertex 29.3058 4.51059 0
    endloop
  endfacet
  facet normal 0 0 -1
    outer loop
      vertex 28.8582 -5.74025 0
      vertex 28.5946 -6.33927 0
      vertex 15 -15 0
    endloop
  endfacet
  facet normal 0 0 -1
    outer loop
      vertex 28.5946 -6.33927 0
      vertex 28.3052 -6.92623 0
      vertex 15 -15 0
    endloop
  endfacet
  facet normal 0 0 -1
    outer loop
      vertex 15 -15 0
      vertex 28.3052 -6.92623 0
      vertex 27.9904 -7.5 0
    endloop
  endfacet
  facet normal 0 0 -1
    outer loop
      vertex 18.8823 14.4889 0
      vertex 19.5106 14.3058 0
      vertex 15 -15 0
    endloop
  endfacet
  facet normal 0 0 -1
    outer loop
      vertex 19.5106 14.3058 0
      vertex 20.1303 14.0954 0
      vertex 15 -15 0
    endloop
  endfacet
  facet normal 0 0 -1
    outer loop
      vertex 15 -15 0
      vertex 20.1303 14.0954 0
      vertex 20.7403 13.8582 0
    endloop
  endfacet
  facet normal 0 0 -1
    outer loop
      vertex 28.3052 6.92623 0
      vertex 28.5946 6.33927 0
      vertex 15 -15 0
    endloop
  endfacet
  facet normal 0 0 -1
    outer loop
      vertex 28.5946 6.33927 0
      vertex 28.8582 5.74025 0
      vertex 15 -15 0
    endloop
  endfacet
  facet normal 0 0 -1
    outer loop
      vertex 15 -15 0
      vertex 28.8582 5.74025 0
      vertex 29.0954 5.1303 0
    endloop
  endfacet
  facet normal 0 0 -1
    outer loop
      vertex 29.3058 4.51059 0
      vertex 29.4889 3.88229 0
      vertex 15 -15 0
    endloop
  endfacet
  facet normal 0 0 -1
    outer loop
      vertex 29.4889 3.88229 0
      vertex 29.6444 3.24659 0
      vertex 15 -15 0
    endloop
  endfacet
  facet normal 0 0 -1
    outer loop
      vertex 15 -15 0
      vertex 29.6444 3.24659 0
      vertex 29.7721 2.60472 0
    endloop
  endfacet
  facet normal 0 0 -1
    outer loop
      vertex 29.7721 2.60472 0
      vertex 29.8717 1.95789 0
      vertex 15 -15 0
    endloop
  endfacet
  facet normal 0 0 -1
    outer loop
      vertex 29.8717 1.95789 0
      vertex 29.9429 1.30734 0
      vertex 15 -15 0
    endloop
  endfacet
  facet normal 0 0 -1
    outer loop
      vertex 15 -15 0
      vertex 29.9429 1.30734 0
      vertex 29.9857 0.654291 0
    endloop
  endfacet
  facet normal 0 0 -1
    outer loop
      vertex 21.3393 -13.5946 0
      vertex 20.7403 -13.8582 0
      vertex 18.2466 -14.6444 0
    endloop
  endfacet
  facet normal 0 0 -1
    outer loop
      vertex 29.9857 0.654291 0
      vertex 30 1.02247e-16 0
      vertex 15 -15 0
    endloop
  endfacet
  facet normal 0 0 -1
    outer loop
      vertex 30 1.02247e-16 0
      vertex 29.9857 -0.654291 0
      vertex 15 -15 0
    endloop
  endfacet
  facet normal 0 0 -1
    outer loop
      vertex 15 -15 0
      vertex 29.9857 -0.654291 0
      vertex 29.9429 -1.30734 0
    endloop
  endfacet
  facet normal 0 0 -1
    outer loop
      vertex 21.3393 -13.5946 0
      vertex 18.2466 -14.6444 0
      vertex 21.9262 -13.3052 0
    endloop
  endfacet
  facet normal 0 0 -1
    outer loop
      vertex 18.2466 -14.6444 0
      vertex 17.6047 -14.7721 0
      vertex 21.9262 -13.3052 0
    endloop
  endfacet
  facet normal 0 0 -1
    outer loop
      vertex 21.9262 -13.3052 0
      vertex 17.6047 -14.7721 0
      vertex 16.9579 -14.8717 0
    endloop
  endfacet
  facet normal 0 0 -1
    outer loop
      vertex 20.7403 -13.8582 0
      vertex 20.1303 -14.0954 0
      vertex 18.2466 -14.6444 0
    endloop
  endfacet
  facet normal 0 0 -1
    outer loop
      vertex 20.1303 -14.0954 0
      vertex 19.5106 -14.3058 0
      vertex 18.2466 -14.6444 0
    endloop
  endfacet
  facet normal 0 0 -1
    outer loop
      vertex 18.2466 -14.6444 0
      vertex 19.5106 -14.3058 0
      vertex 18.8823 -14.4889 0
    endloop
  endfacet
  facet normal 0 0 -1
    outer loop
      vertex 23.0595 -12.6509 0
      vertex 22.5 -12.9904 0
      vertex 15.6543 -14.9857 0
    endloop
  endfacet
  facet normal 0 0 -1
    outer loop
      vertex 22.5 -12.9904 0
      vertex 21.9262 -13.3052 0
      vertex 15.6543 -14.9857 0
    endloop
  endfacet
  facet normal 0 0 -1
    outer loop
      vertex 15.6543 -14.9857 0
      vertex 21.9262 -13.3052 0
      vertex 16.3073 -14.9429 0
    endloop
  endfacet
  facet normal 0 0 -1
    outer loop
      vertex 21.9262 -13.3052 0
      vertex 16.9579 -14.8717 0
      vertex 16.3073 -14.9429 0
    endloop
  endfacet
  facet normal 0 0 1
    outer loop
      vertex 11.8453 -13 30
      vertex 13 -15 30
      vertex 15 -15 30
    endloop
  endfacet
  facet normal 0 0 1
    outer loop
      vertex 29.0954 -5.1303 30
      vertex 29.3058 -4.51059 30
      vertex 15 15 30
    endloop
  endfacet
  facet normal 0 0 1
    outer loop
      vertex 15 15 30
      vertex 13 15 30
      vertex 11.8453 13 30
    endloop
  endfacet
  facet normal 0 0 1
    outer loop
      vertex 10.6906 15 30
      vertex -10.6906 15 30
      vertex 11.8453 13 30
    endloop
  endfacet
  facet normal 0 0 1
    outer loop
      vertex -10.6906 15 30
      vertex -11.8453 13 30
      vertex 11.8453 13 30
    endloop
  endfacet
  facet normal 0 0 1
    outer loop
      vertex 26.9003 -9.13142 30
      vertex 27.2873 -8.60365 30
      vertex 15 15 30
    endloop
  endfacet
  facet normal 0 0 1
    outer loop
      vertex -15 1.1547 30
      vertex -13 -5.42101e-16 30
      vertex -15 15 30
    endloop
  endfacet
  facet normal 0 0 1
    outer loop
      vertex -13 -5.42101e-16 30
      vertex -11.8453 13 30
      vertex -15 15 30
    endloop
  endfacet
  facet normal 0 0 1
    outer loop
      vertex -15 15 30
      vertex -11.8453 13 30
      vertex -13 15 30
    endloop
  endfacet
  facet normal 0 0 1
    outer loop
      vertex -10.6906 -15 30
      vertex 10.6906 -15 30
      vertex -11.8453 -13 30
    endloop
  endfacet
  facet normal 0 0 1
    outer loop
      vertex 10.6906 -15 30
      vertex 11.8453 -13 30
      vertex -11.8453 -13 30
    endloop
  endfacet
  facet normal 0 0 1
    outer loop
      vertex -13 -5.42101e-16 30
      vertex -15 -1.1547 30
      vertex -11.8453 -13 30
    endloop
  endfacet
  facet normal 0 0 1
    outer loop
      vertex -15 -1.1547 30
      vertex -15 -15 30
      vertex -11.8453 -13 30
    endloop
  endfacet
  facet normal 0 0 1
    outer loop
      vertex -11.8453 -13 30
      vertex -15 -15 30
      vertex -13 -15 30
    endloop
  endfacet
  facet normal 0 0 1
    outer loop
      vertex 23.0595 -12.6509 30
      vertex 23.6036 -12.2873 30
      vertex 15 15 30
    endloop
  endfacet
  facet normal 0 0 1
    outer loop
      vertex 23.6036 -12.2873 30
      vertex 24.1314 -11.9003 30
      vertex 15 15 30
    endloop
  endfacet
  facet normal 0 0 1
    outer loop
      vertex 15 15 30
      vertex 27.9904 7.5 30
      vertex 27.6509 8.05949 30
    endloop
  endfacet
  facet normal 0 0 1
    outer loop
      vertex 16.9579 -14.8717 30
      vertex 17.6047 -14.7721 30
      vertex 15 15 30
    endloop
  endfacet
  facet normal 0 0 1
    outer loop
      vertex 24.1314 -11.9003 30
      vertex 24.6418 -11.4907 30
      vertex 15 15 30
    endloop
  endfacet
  facet normal 0 0 1
    outer loop
      vertex 24.6418 -11.4907 30
      vertex 25.1339 -11.0592 30
      vertex 15 15 30
    endloop
  endfacet
  facet normal 0 0 1
    outer loop
      vertex 15 15 30
      vertex 25.1339 -11.0592 30
      vertex 25.6066 -10.6066 30
    endloop
  endfacet
  facet normal 0 0 1
    outer loop
      vertex 25.6066 -10.6066 30
      vertex 26.0592 -10.1339 30
      vertex 15 15 30
    endloop
  endfacet
  facet normal 0 0 1
    outer loop
      vertex 26.0592 -10.1339 30
      vertex 26.4907 -9.64181 30
      vertex 15 15 30
    endloop
  endfacet
  facet normal 0 0 1
    outer loop
      vertex 15 15 30
      vertex 26.4907 -9.64181 30
      vertex 26.9003 -9.13142 30
    endloop
  endfacet
  facet normal 0 0 1
    outer loop
      vertex 27.2873 -8.60365 30
      vertex 27.6509 -8.05949 30
      vertex 15 15 30
    endloop
  endfacet
  facet normal 0 0 1
    outer loop
      vertex 27.6509 -8.05949 30
      vertex 27.9904 -7.5 30
      vertex 15 15 30
    endloop
  endfacet
  facet normal 0 0 1
    outer loop
      vertex 15 15 30
      vertex 27.9904 -7.5 30
      vertex 28.3052 -6.92623 30
    endloop
  endfacet
  facet normal 0 0 1
    outer loop
      vertex 29.3058 -4.51059 30
      vertex 29.4889 -3.88229 30
      vertex 15 15 30
    endloop
  endfacet
  facet normal 0 0 1
    outer loop
      vertex 29.4889 -3.88229 30
      vertex 29.6444 -3.24659 30
      vertex 15 15 30
    endloop
  endfacet
  facet normal 0 0 1
    outer loop
      vertex 15 15 30
      vertex 29.6444 -3.24659 30
      vertex 29.7721 -2.60472 30
    endloop
  endfacet
  facet normal 0 0 1
    outer loop
      vertex 27.6509 8.05949 30
      vertex 27.2873 8.60365 30
      vertex 15 15 30
    endloop
  endfacet
  facet normal 0 0 1
    outer loop
      vertex 27.2873 8.60365 30
      vertex 26.9003 9.13142 30
      vertex 15 15 30
    endloop
  endfacet
  facet normal 0 0 1
    outer loop
      vertex 15 15 30
      vertex 26.9003 9.13142 30
      vertex 26.4907 9.64181 30
    endloop
  endfacet
  facet normal 0 0 1
    outer loop
      vertex 26.4907 9.64181 30
      vertex 26.0592 10.1339 30
      vertex 15 15 30
    endloop
  endfacet
  facet normal 0 0 1
    outer loop
      vertex 26.0592 10.1339 30
      vertex 25.6066 10.6066 30
      vertex 15 15 30
    endloop
  endfacet
  facet normal 0 0 1
    outer loop
      vertex 15 15 30
      vertex 25.6066 10.6066 30
      vertex 25.1339 11.0592 30
    endloop
  endfacet
  facet normal 0 0 1
    outer loop
      vertex 18.2466 14.6444 30
      vertex 17.6047 14.7721 30
      vertex 24.1314 11.9003 30
    endloop
  endfacet
  facet normal 0 0 1
    outer loop
      vertex 17.6047 14.7721 30
      vertex 16.9579 14.8717 30
      vertex 24.1314 11.9003 30
    endloop
  endfacet
  facet normal 0 0 1
    outer loop
      vertex 24.1314 11.9003 30
      vertex 16.9579 14.8717 30
      vertex 16.3073 14.9429 30
    endloop
  endfacet
  facet normal 0 0 1
    outer loop
      vertex 25.1339 11.0592 30
      vertex 24.6418 11.4907 30
      vertex 15 15 30
    endloop
  endfacet
  facet normal 0 0 1
    outer loop
      vertex 24.6418 11.4907 30
      vertex 24.1314 11.9003 30
      vertex 15 15 30
    endloop
  endfacet
  facet normal 0 0 1
    outer loop
      vertex 15 15 30
      vertex 24.1314 11.9003 30
      vertex 15.6543 14.9857 30
    endloop
  endfacet
  facet normal 0 0 1
    outer loop
      vertex 24.1314 11.9003 30
      vertex 16.3073 14.9429 30
      vertex 15.6543 14.9857 30
    endloop
  endfacet
  facet normal 0 0 1
    outer loop
      vertex 16.9579 -14.8717 30
      vertex 15 15 30
      vertex 16.3073 -14.9429 30
    endloop
  endfacet
  facet normal 0 0 1
    outer loop
      vertex 28.3052 -6.92623 30
      vertex 28.5946 -6.33927 30
      vertex 15 15 30
    endloop
  endfacet
  facet normal 0 0 1
    outer loop
      vertex 28.5946 -6.33927 30
      vertex 28.8582 -5.74025 30
      vertex 15 15 30
    endloop
  endfacet
  facet normal 0 0 1
    outer loop
      vertex 15 15 30
      vertex 28.8582 -5.74025 30
      vertex 29.0954 -5.1303 30
    endloop
  endfacet
  facet normal 0 0 1
    outer loop
      vertex -13 -5.42101e-16 30
      vertex -11.8453 -13 30
      vertex -11.8453 13 30
    endloop
  endfacet
  facet normal 0 0 1
    outer loop
      vertex -11.8453 -13 30
      vertex 11.8453 -13 30
      vertex -11.8453 13 30
    endloop
  endfacet
  facet normal 0 0 1
    outer loop
      vertex -11.8453 13 30
      vertex 11.8453 -13 30
      vertex 11.8453 13 30
    endloop
  endfacet
  facet normal 0 0 1
    outer loop
      vertex 11.8453 -13 30
      vertex 15 -15 30
      vertex 11.8453 13 30
    endloop
  endfacet
  facet normal 0 0 1
    outer loop
      vertex 11.8453 13 30
      vertex 15 -15 30
      vertex 15 15 30
    endloop
  endfacet
  facet normal 0 0 1
    outer loop
      vertex 15 -15 30
      vertex 15.6543 -14.9857 30
      vertex 15 15 30
    endloop
  endfacet
  facet normal 0 0 1
    outer loop
      vertex 15 15 30
      vertex 15.6543 -14.9857 30
      vertex 16.3073 -14.9429 30
    endloop
  endfacet
  facet normal 0 0 1
    outer loop
      vertex 21.3393 -13.5946 30
      vertex 21.9262 -13.3052 30
      vertex 15 15 30
    endloop
  endfacet
  facet normal 0 0 1
    outer loop
      vertex 21.9262 -13.3052 30
      vertex 22.5 -12.9904 30
      vertex 15 15 30
    endloop
  endfacet
  facet normal 0 0 1
    outer loop
      vertex 15 15 30
      vertex 22.5 -12.9904 30
      vertex 23.0595 -12.6509 30
    endloop
  endfacet
  facet normal 0 0 1
    outer loop
      vertex 29.7721 -2.60472 30
      vertex 29.8717 -1.95789 30
      vertex 15 15 30
    endloop
  endfacet
  facet normal 0 0 1
    outer loop
      vertex 29.8717 -1.95789 30
      vertex 29.9429 -1.30734 30
      vertex 15 15 30
    endloop
  endfacet
  facet normal 0 0 1
    outer loop
      vertex 15 15 30
      vertex 29.9429 -1.30734 30
      vertex 29.9857 -0.654291 30
    endloop
  endfacet
  facet normal 0 0 1
    outer loop
      vertex 18.2466 14.6444 30
      vertex 24.1314 11.9003 30
      vertex 18.8823 14.4889 30
    endloop
  endfacet
  facet normal 0 0 1
    outer loop
      vertex 24.1314 11.9003 30
      vertex 23.6036 12.2873 30
      vertex 18.8823 14.4889 30
    endloop
  endfacet
  facet normal 0 0 1
    outer loop
      vertex 18.8823 14.4889 30
      vertex 23.6036 12.2873 30
      vertex 23.0595 12.6509 30
    endloop
  endfacet
  facet normal 0 0 1
    outer loop
      vertex 29.9857 -0.654291 30
      vertex 30 1.02247e-16 30
      vertex 15 15 30
    endloop
  endfacet
  facet normal 0 0 1
    outer loop
      vertex 30 1.02247e-16 30
      vertex 29.9857 0.654291 30
      vertex 15 15 30
    endloop
  endfacet
  facet normal 0 0 1
    outer loop
      vertex 15 15 30
      vertex 29.9857 0.654291 30
      vertex 29.9429 1.30734 30
    endloop
  endfacet
  facet normal 0 0 1
    outer loop
      vertex 29.9429 1.30734 30
      vertex 29.8717 1.95789 30
      vertex 15 15 30
    endloop
  endfacet
  facet normal 0 0 1
    outer loop
      vertex 29.8717 1.95789 30
      vertex 29.7721 2.60472 30
      vertex 15 15 30
    endloop
  endfacet
  facet normal 0 0 1
    outer loop
      vertex 15 15 30
      vertex 29.7721 2.60472 30
      vertex 29.6444 3.24659 30
    endloop
  endfacet
  facet normal 0 0 1
    outer loop
      vertex 15 15 30
      vertex 29.0954 5.1303 30
      vertex 28.8582 5.74025 30
    endloop
  endfacet
  facet normal 0 0 1
    outer loop
      vertex 23.0595 12.6509 30
      vertex 22.5 12.9904 30
      vertex 18.8823 14.4889 30
    endloop
  endfacet
  facet normal 0 0 1
    outer loop
      vertex 22.5 12.9904 30
      vertex 21.9262 13.3052 30
      vertex 18.8823 14.4889 30
    endloop
  endfacet
  facet normal 0 0 1
    outer loop
      vertex 18.8823 14.4889 30
      vertex 21.9262 13.3052 30
      vertex 21.3393 13.5946 30
    endloop
  endfacet
  facet normal 0 0 1
    outer loop
      vertex 21.3393 13.5946 30
      vertex 20.7403 13.8582 30
      vertex 18.8823 14.4889 30
    endloop
  endfacet
  facet normal 0 0 1
    outer loop
      vertex 20.7403 13.8582 30
      vertex 20.1303 14.0954 30
      vertex 18.8823 14.4889 30
    endloop
  endfacet
  facet normal 0 0 1
    outer loop
      vertex 18.8823 14.4889 30
      vertex 20.1303 14.0954 30
      vertex 19.5106 14.3058 30
    endloop
  endfacet
  facet normal 0 0 1
    outer loop
      vertex 29.6444 3.24659 30
      vertex 29.4889 3.88229 30
      vertex 15 15 30
    endloop
  endfacet
  facet normal 0 0 1
    outer loop
      vertex 29.4889 3.88229 30
      vertex 29.3058 4.51059 30
      vertex 15 15 30
    endloop
  endfacet
  facet normal 0 0 1
    outer loop
      vertex 15 15 30
      vertex 29.3058 4.51059 30
      vertex 29.0954 5.1303 30
    endloop
  endfacet
  facet normal 0 0 1
    outer loop
      vertex 28.8582 5.74025 30
      vertex 28.5946 6.33927 30
      vertex 15 15 30
    endloop
  endfacet
  facet normal 0 0 1
    outer loop
      vertex 28.5946 6.33927 30
      vertex 28.3052 6.92623 30
      vertex 15 15 30
    endloop
  endfacet
  facet normal 0 0 1
    outer loop
      vertex 15 15 30
      vertex 28.3052 6.92623 30
      vertex 27.9904 7.5 30
    endloop
  endfacet
  facet normal 0 0 1
    outer loop
      vertex 17.6047 -14.7721 30
      vertex 18.2466 -14.6444 30
      vertex 15 15 30
    endloop
  endfacet
  facet normal 0 0 1
    outer loop
      vertex 18.2466 -14.6444 30
      vertex 18.8823 -14.4889 30
      vertex 15 15 30
    endloop
  endfacet
  facet normal 0 0 1
    outer loop
      vertex 15 15 30
      vertex 18.8823 -14.4889 30
      vertex 19.5106 -14.3058 30
    endloop
  endfacet
  facet normal 0 0 1
    outer loop
      vertex 19.5106 -14.3058 30
      vertex 20.1303 -14.0954 30
      vertex 15 15 30
    endloop
  endfacet
  facet normal 0 0 1
    outer loop
      vertex 20.1303 -14.0954 30
      vertex 20.7403 -13.8582 30
      vertex 15 15 30
    endloop
  endfacet
  facet normal 0 0 1
    outer loop
      vertex 15 15 30
      vertex 20.7403 -13.8582 30
      vertex 21.3393 -13.5946 30
    endloop
  endfacet
  facet normal 0 1 0
    outer loop
      vertex -10.6906 15 30
      vertex 10.6906 15 30
      vertex -10.6906 15 0
    endloop
  endfacet
  facet normal 0 1 0
    outer loop
      vertex 10.6906 15 30
      vertex 10.6906 15 0
      vertex -10.6906 15 0
    endloop
  endfacet
  facet normal 0.866025 0.5 0
    outer loop
      vertex 10.6906 15 30
      vertex 11.8453 13 30
      vertex 10.6906 15 0
    endloop
  endfacet
  facet normal 0.866025 0.5 0
    outer loop
      vertex 11.8453 13 30
      vertex 11.8453 13 0
      vertex 10.6906 15 0
    endloop
  endfacet
  facet normal -0.866025 0.5 0
    outer loop
      vertex 11.8453 13 30
      vertex 13 15 30
      vertex 11.8453 13 0
    endloop
  endfacet
  facet normal -0.866025 0.5 0
    outer loop
      vertex 13 15 30
      vertex 13 15 0
      vertex 11.8453 13 0
    endloop
  endfacet
  facet normal -0.5 0.866025 0
    outer loop
      vertex -15 -1.1547 30
      vertex -13 -5.42101e-16 30
      vertex -15 -1.1547 0
    endloop
  endfacet
  facet normal -0.5 0.866025 0
    outer loop
      vertex -13 -5.42101e-16 30
      vertex -13 -5.42101e-16 0
      vertex -15 -1.1547 0
    endloop
  endfacet
  facet normal 0 -1 0
    outer loop
      vertex -13 -15 30
      vertex -15 -15 30
      vertex -13 -15 0
    endloop
  endfacet
  facet normal 0 -1 0
    outer loop
      vertex -15 -15 30
      vertex -15 -15 0
      vertex -13 -15 0
    endloop
  endfacet
  facet normal -0.5 -0.866025 0
    outer loop
      vertex -13 -5.42101e-16 30
      vertex -15 1.1547 30
      vertex -13 -5.42101e-16 0
    endloop
  endfacet
  facet normal -0.5 -0.866025 0
    outer loop
      vertex -15 1.1547 30
      vertex -15 1.1547 0
      vertex -13 -5.42101e-16 0
    endloop
  endfacet
  facet normal 0 1 0
    outer loop
      vertex -15 15 30
      vertex -13 15 30
      vertex -15 15 0
    endloop
  endfacet
  facet normal 0 1 0
    outer loop
      vertex -13 15 30
      vertex -13 15 0
      vertex -15 15 0
    endloop
  endfacet
  facet normal -0.866025 0.5 0
    outer loop
      vertex -11.8453 13 30
      vertex -10.6906 15 30
      vertex -11.8453 13 0
    endloop
  endfacet
  facet normal -0.866025 0.5 0
    outer loop
      vertex -10.6906 15 30
      vertex -10.6906 15 0
      vertex -11.8453 13 0
    endloop
  endfacet
  facet normal -1 0 0
    outer loop
      vertex -15 1.1547 30
      vertex -15 15 30
      vertex -15 1.1547 0
    endloop
  endfacet
  facet normal -1 0 0
    outer loop
      vertex -15 15 30
      vertex -15 15 0
      vertex -15 1.1547 0
    endloop
  endfacet
  facet normal 0.866025 0.5 0
    outer loop
      vertex -13 15 30
      vertex -11.8453 13 30
      vertex -13 15 0
    endloop
  endfacet
  facet normal 0.866025 0.5 0
    outer loop
      vertex -11.8453 13 30
      vertex -11.8453 13 0
      vertex -13 15 0
    endloop
  endfacet
  facet normal -1 0 0
    outer loop
      vertex -15 -15 30
      vertex -15 -1.1547 30
      vertex -15 -15 0
    endloop
  endfacet
  facet normal -1 0 0
    outer loop
      vertex -15 -1.1547 30
      vertex -15 -1.1547 0
      vertex -15 -15 0
    endloop
  endfacet
  facet normal 0.866025 -0.5 0
    outer loop
      vertex -11.8453 -13 30
      vertex -13 -15 30
      vertex -11.8453 -13 0
    endloop
  endfacet
  facet normal 0.866025 -0.5 0
    outer loop
      vertex -13 -15 30
      vertex -13 -15 0
      vertex -11.8453 -13 0
    endloop
  endfacet
  facet normal -0.866025 -0.5 0
    outer loop
      vertex -10.6906 -15 30
      vertex -11.8453 -13 30
      vertex -10.6906 -15 0
    endloop
  endfacet
  facet normal -0.866025 -0.5 0
    outer loop
      vertex -11.8453 -13 30
      vertex -11.8453 -13 0
      vertex -10.6906 -15 0
    endloop
  endfacet
  facet normal 0 -1 0
    outer loop
      vertex 10.6906 -15 30
      vertex -10.6906 -15 30
      vertex 10.6906 -15 0
    endloop
  endfacet
  facet normal 0 -1 0
    outer loop
      vertex -10.6906 -15 30
      vertex -10.6906 -15 0
      vertex 10.6906 -15 0
    endloop
  endfacet
  facet normal 0.866025 -0.5 0
    outer loop
      vertex 11.8453 -13 30
      vertex 10.6906 -15 30
      vertex 11.8453 -13 0
    endloop
  endfacet
  facet normal 0.866025 -0.5 0
    outer loop
      vertex 10.6906 -15 30
      vertex 10.6906 -15 0
      vertex 11.8453 -13 0
    endloop
  endfacet
  facet normal -0.866025 -0.5 0
    outer loop
      vertex 13 -15 30
      vertex 11.8453 -13 30
      vertex 13 -15 0
    endloop
  endfacet
  facet normal -0.866025 -0.5 0
    outer loop
      vertex 11.8453 -13 30
      vertex 11.8453 -13 0
      vertex 13 -15 0
    endloop
  endfacet
  facet normal 0 -1 0
    outer loop
      vertex 15 -15 30
      vertex 13 -15 30
      vertex 15 -15 0
    endloop
  endfacet
  facet normal 0 -1 0
    outer loop
      vertex 13 -15 30
      vertex 13 -15 0
      vertex 15 -15 0
    endloop
  endfacet
  facet normal 0.0218142 -0.999762 0
    outer loop
      vertex 15 -15 30
      vertex 15 -15 0
      vertex 15.6543 -14.9857 0
    endloop
  endfacet
  facet normal 0.0218142 -0.999762 0
    outer loop
      vertex 15 -15 30
      vertex 15.6543 -14.9857 0
      vertex 15.6543 -14.9857 30
    endloop
  endfacet
  facet normal 0.0654028 -0.997859 0
    outer loop
      vertex 15.6543 -14.9857 0
      vertex 16.3073 -14.9429 0
      vertex 15.6543 -14.9857 30
    endloop
  endfacet
  facet normal 0.0654028 -0.997859 0
    outer loop
      vertex 15.6543 -14.9857 30
      vertex 16.3073 -14.9429 0
      vertex 16.3073 -14.9429 30
    endloop
  endfacet
  facet normal 0.108868 -0.994056 0
    outer loop
      vertex 16.3073 -14.9429 0
      vertex 16.9579 -14.8717 0
      vertex 16.3073 -14.9429 30
    endloop
  endfacet
  facet normal 0.108868 -0.994056 0
    outer loop
      vertex 16.3073 -14.9429 30
      vertex 16.9579 -14.8717 0
      vertex 16.9579 -14.8717 30
    endloop
  endfacet
  facet normal 0.152123 -0.988362 0
    outer loop
      vertex 16.9579 -14.8717 0
      vertex 17.6047 -14.7721 0
      vertex 16.9579 -14.8717 30
    endloop
  endfacet
  facet normal 0.152123 -0.988362 0
    outer loop
      vertex 16.9579 -14.8717 30
      vertex 17.6047 -14.7721 0
      vertex 17.6047 -14.7721 30
    endloop
  endfacet
  facet normal 0.19509 -0.980785 0
    outer loop
      vertex 17.6047 -14.7721 0
      vertex 18.2466 -14.6444 0
      vertex 17.6047 -14.7721 30
    endloop
  endfacet
  facet normal 0.19509 -0.980785 0
    outer loop
      vertex 17.6047 -14.7721 30
      vertex 18.2466 -14.6444 0
      vertex 18.2466 -14.6444 30
    endloop
  endfacet
  facet normal 0.237687 -0.971342 0
    outer loop
      vertex 18.2466 -14.6444 0
      vertex 18.8823 -14.4889 0
      vertex 18.2466 -14.6444 30
    endloop
  endfacet
  facet normal 0.237687 -0.971342 0
    outer loop
      vertex 18.2466 -14.6444 30
      vertex 18.8823 -14.4889 0
      vertex 18.8823 -14.4889 30
    endloop
  endfacet
  facet normal 0.279828 -0.96005 0
    outer loop
      vertex 18.8823 -14.4889 0
      vertex 19.5106 -14.3058 0
      vertex 18.8823 -14.4889 30
    endloop
  endfacet
  facet normal 0.279828 -0.96005 0
    outer loop
      vertex 18.8823 -14.4889 30
      vertex 19.5106 -14.3058 0
      vertex 19.5106 -14.3058 30
    endloop
  endfacet
  facet normal 0.32144 -0.94693 0
    outer loop
      vertex 19.5106 -14.3058 0
      vertex 20.1303 -14.0954 0
      vertex 19.5106 -14.3058 30
    endloop
  endfacet
  facet normal 0.32144 -0.94693 0
    outer loop
      vertex 19.5106 -14.3058 30
      vertex 20.1303 -14.0954 0
      vertex 20.1303 -14.0954 30
    endloop
  endfacet
  facet normal 0.362439 -0.932008 0
    outer loop
      vertex 20.1303 -14.0954 0
      vertex 20.7403 -13.8582 0
      vertex 20.1303 -14.0954 30
    endloop
  endfacet
  facet normal 0.362439 -0.932008 0
    outer loop
      vertex 20.1303 -14.0954 30
      vertex 20.7403 -13.8582 0
      vertex 20.7403 -13.8582 30
    endloop
  endfacet
  facet normal 0.402747 -0.915312 0
    outer loop
      vertex 20.7403 -13.8582 0
      vertex 21.3393 -13.5946 0
      vertex 20.7403 -13.8582 30
    endloop
  endfacet
  facet normal 0.402747 -0.915312 0
    outer loop
      vertex 20.7403 -13.8582 30
      vertex 21.3393 -13.5946 0
      vertex 21.3393 -13.5946 30
    endloop
  endfacet
  facet normal 0.442289 -0.896873 0
    outer loop
      vertex 21.3393 -13.5946 0
      vertex 21.9262 -13.3052 0
      vertex 21.3393 -13.5946 30
    endloop
  endfacet
  facet normal 0.442289 -0.896873 0
    outer loop
      vertex 21.3393 -13.5946 30
      vertex 21.9262 -13.3052 0
      vertex 21.9262 -13.3052 30
    endloop
  endfacet
  facet normal 0.480989 -0.876727 0
    outer loop
      vertex 21.9262 -13.3052 0
      vertex 22.5 -12.9904 0
      vertex 21.9262 -13.3052 30
    endloop
  endfacet
  facet normal 0.480989 -0.876727 0
    outer loop
      vertex 21.9262 -13.3052 30
      vertex 22.5 -12.9904 0
      vertex 22.5 -12.9904 30
    endloop
  endfacet
  facet normal 0.518773 -0.854912 0
    outer loop
      vertex 22.5 -12.9904 0
      vertex 23.0595 -12.6509 0
      vertex 22.5 -12.9904 30
    endloop
  endfacet
  facet normal 0.518773 -0.854912 0
    outer loop
      vertex 22.5 -12.9904 30
      vertex 23.0595 -12.6509 0
      vertex 23.0595 -12.6509 30
    endloop
  endfacet
  facet normal 0.555571 -0.831469 0
    outer loop
      vertex 23.0595 -12.6509 0
      vertex 23.6036 -12.2873 0
      vertex 23.0595 -12.6509 30
    endloop
  endfacet
  facet normal 0.555571 -0.831469 0
    outer loop
      vertex 23.0595 -12.6509 30
      vertex 23.6036 -12.2873 0
      vertex 23.6036 -12.2873 30
    endloop
  endfacet
  facet normal 0.591309 -0.806445 0
    outer loop
      vertex 23.6036 -12.2873 0
      vertex 24.1314 -11.9003 0
      vertex 23.6036 -12.2873 30
    endloop
  endfacet
  facet normal 0.591309 -0.806445 0
    outer loop
      vertex 23.6036 -12.2873 30
      vertex 24.1314 -11.9003 0
      vertex 24.1314 -11.9003 30
    endloop
  endfacet
  facet normal 0.625924 -0.779884 0
    outer loop
      vertex 24.1314 -11.9003 0
      vertex 24.6418 -11.4907 0
      vertex 24.1314 -11.9003 30
    endloop
  endfacet
  facet normal 0.625924 -0.779884 0
    outer loop
      vertex 24.1314 -11.9003 30
      vertex 24.6418 -11.4907 0
      vertex 24.6418 -11.4907 30
    endloop
  endfacet
  facet normal 0.659344 -0.751841 0
    outer loop
      vertex 24.6418 -11.4907 0
      vertex 25.1339 -11.0592 0
      vertex 24.6418 -11.4907 30
    endloop
  endfacet
  facet normal 0.659344 -0.751841 0
    outer loop
      vertex 24.6418 -11.4907 30
      vertex 25.1339 -11.0592 0
      vertex 25.1339 -11.0592 30
    endloop
  endfacet
  facet normal 0.691513 -0.722364 0
    outer loop
      vertex 25.1339 -11.0592 0
      vertex 25.6066 -10.6066 0
      vertex 25.1339 -11.0592 30
    endloop
  endfacet
  facet normal 0.691513 -0.722364 0
    outer loop
      vertex 25.1339 -11.0592 30
      vertex 25.6066 -10.6066 0
      vertex 25.6066 -10.6066 30
    endloop
  endfacet
  facet normal 0.722365 -0.691512 0
    outer loop
      vertex 25.6066 -10.6066 0
      vertex 26.0592 -10.1339 0
      vertex 25.6066 -10.6066 30
    endloop
  endfacet
  facet normal 0.722365 -0.691512 0
    outer loop
      vertex 25.6066 -10.6066 30
      vertex 26.0592 -10.1339 0
      vertex 26.0592 -10.1339 30
    endloop
  endfacet
  facet normal 0.75184 -0.659345 0
    outer loop
      vertex 26.0592 -10.1339 0
      vertex 26.4907 -9.64181 0
      vertex 26.0592 -10.1339 30
    endloop
  endfacet
  facet normal 0.75184 -0.659345 0
    outer loop
      vertex 26.0592 -10.1339 30
      vertex 26.4907 -9.64181 0
      vertex 26.4907 -9.64181 30
    endloop
  endfacet
  facet normal 0.779883 -0.625925 0
    outer loop
      vertex 26.4907 -9.64181 0
      vertex 26.9003 -9.13142 0
      vertex 26.4907 -9.64181 30
    endloop
  endfacet
  facet normal 0.779883 -0.625925 0
    outer loop
      vertex 26.4907 -9.64181 30
      vertex 26.9003 -9.13142 0
      vertex 26.9003 -9.13142 30
    endloop
  endfacet
  facet normal 0.806445 -0.591309 0
    outer loop
      vertex 26.9003 -9.13142 0
      vertex 27.2873 -8.60365 0
      vertex 26.9003 -9.13142 30
    endloop
  endfacet
  facet normal 0.806445 -0.591309 0
    outer loop
      vertex 26.9003 -9.13142 30
      vertex 27.2873 -8.60365 0
      vertex 27.2873 -8.60365 30
    endloop
  endfacet
  facet normal 0.831469 -0.555571 0
    outer loop
      vertex 27.2873 -8.60365 0
      vertex 27.6509 -8.05949 0
      vertex 27.2873 -8.60365 30
    endloop
  endfacet
  facet normal 0.831469 -0.555571 0
    outer loop
      vertex 27.2873 -8.60365 30
      vertex 27.6509 -8.05949 0
      vertex 27.6509 -8.05949 30
    endloop
  endfacet
  facet normal 0.854913 -0.518772 0
    outer loop
      vertex 27.6509 -8.05949 0
      vertex 27.9904 -7.5 0
      vertex 27.6509 -8.05949 30
    endloop
  endfacet
  facet normal 0.854913 -0.518772 0
    outer loop
      vertex 27.6509 -8.05949 30
      vertex 27.9904 -7.5 0
      vertex 27.9904 -7.5 30
    endloop
  endfacet
  facet normal 0.876727 -0.480989 0
    outer loop
      vertex 27.9904 -7.5 0
      vertex 28.3052 -6.92623 0
      vertex 27.9904 -7.5 30
    endloop
  endfacet
  facet normal 0.876727 -0.480989 0
    outer loop
      vertex 27.9904 -7.5 30
      vertex 28.3052 -6.92623 0
      vertex 28.3052 -6.92623 30
    endloop
  endfacet
  facet normal 0.896872 -0.44229 0
    outer loop
      vertex 28.3052 -6.92623 0
      vertex 28.5946 -6.33927 0
      vertex 28.3052 -6.92623 30
    endloop
  endfacet
  facet normal 0.896872 -0.44229 0
    outer loop
      vertex 28.3052 -6.92623 30
      vertex 28.5946 -6.33927 0
      vertex 28.5946 -6.33927 30
    endloop
  endfacet
  facet normal 0.915312 -0.402746 0
    outer loop
      vertex 28.5946 -6.33927 0
      vertex 28.8582 -5.74025 0
      vertex 28.5946 -6.33927 30
    endloop
  endfacet
  facet normal 0.915312 -0.402746 0
    outer loop
      vertex 28.5946 -6.33927 30
      vertex 28.8582 -5.74025 0
      vertex 28.8582 -5.74025 30
    endloop
  endfacet
  facet normal 0.932008 -0.362439 0
    outer loop
      vertex 28.8582 -5.74025 0
      vertex 29.0954 -5.1303 0
      vertex 28.8582 -5.74025 30
    endloop
  endfacet
  facet normal 0.932008 -0.362439 0
    outer loop
      vertex 28.8582 -5.74025 30
      vertex 29.0954 -5.1303 0
      vertex 29.0954 -5.1303 30
    endloop
  endfacet
  facet normal 0.94693 -0.32144 0
    outer loop
      vertex 29.0954 -5.1303 0
      vertex 29.3058 -4.51059 0
      vertex 29.0954 -5.1303 30
    endloop
  endfacet
  facet normal 0.94693 -0.32144 0
    outer loop
      vertex 29.0954 -5.1303 30
      vertex 29.3058 -4.51059 0
      vertex 29.3058 -4.51059 30
    endloop
  endfacet
  facet normal 0.96005 -0.279829 0
    outer loop
      vertex 29.3058 -4.51059 0
      vertex 29.4889 -3.88229 0
      vertex 29.3058 -4.51059 30
    endloop
  endfacet
  facet normal 0.96005 -0.279829 0
    outer loop
      vertex 29.3058 -4.51059 30
      vertex 29.4889 -3.88229 0
      vertex 29.4889 -3.88229 30
    endloop
  endfacet
  facet normal 0.971342 -0.237687 0
    outer loop
      vertex 29.4889 -3.88229 0
      vertex 29.6444 -3.24659 0
      vertex 29.4889 -3.88229 30
    endloop
  endfacet
  facet normal 0.971342 -0.237687 0
    outer loop
      vertex 29.4889 -3.88229 30
      vertex 29.6444 -3.24659 0
      vertex 29.6444 -3.24659 30
    endloop
  endfacet
  facet normal 0.980786 -0.195089 0
    outer loop
      vertex 29.6444 -3.24659 0
      vertex 29.7721 -2.60472 0
      vertex 29.6444 -3.24659 30
    endloop
  endfacet
  facet normal 0.980786 -0.195089 0
    outer loop
      vertex 29.6444 -3.24659 30
      vertex 29.7721 -2.60472 0
      vertex 29.7721 -2.60472 30
    endloop
  endfacet
  facet normal 0.988362 -0.152123 0
    outer loop
      vertex 29.7721 -2.60472 0
      vertex 29.8717 -1.95789 0
      vertex 29.7721 -2.60472 30
    endloop
  endfacet
  facet normal 0.988362 -0.152123 0
    outer loop
      vertex 29.7721 -2.60472 30
      vertex 29.8717 -1.95789 0
      vertex 29.8717 -1.95789 30
    endloop
  endfacet
  facet normal 0.994056 -0.108868 0
    outer loop
      vertex 29.8717 -1.95789 0
      vertex 29.9429 -1.30734 0
      vertex 29.8717 -1.95789 30
    endloop
  endfacet
  facet normal 0.994056 -0.108868 0
    outer loop
      vertex 29.8717 -1.95789 30
      vertex 29.9429 -1.30734 0
      vertex 29.9429 -1.30734 30
    endloop
  endfacet
  facet normal 0.997859 -0.0654042 0
    outer loop
      vertex 29.9429 -1.30734 0
      vertex 29.9857 -0.654291 0
      vertex 29.9429 -1.30734 30
    endloop
  endfacet
  facet normal 0.997859 -0.0654042 0
    outer loop
      vertex 29.9429 -1.30734 30
      vertex 29.9857 -0.654291 0
      vertex 29.9857 -0.654291 30
    endloop
  endfacet
  facet normal 0.999762 -0.0218128 0
    outer loop
      vertex 29.9857 -0.654291 0
      vertex 30 1.02247e-16 0
      vertex 29.9857 -0.654291 30
    endloop
  endfacet
  facet normal 0.999762 -0.0218128 0
    outer loop
      vertex 29.9857 -0.654291 30
      vertex 30 1.02247e-16 0
      vertex 30 1.02247e-16 30
    endloop
  endfacet
  facet normal 0.999762 0.0218128 0
    outer loop
      vertex 30 1.02247e-16 0
      vertex 29.9857 0.654291 0
      vertex 30 1.02247e-16 30
    endloop
  endfacet
  facet normal 0.999762 0.0218128 0
    outer loop
      vertex 30 1.02247e-16 30
      vertex 29.9857 0.654291 0
      vertex 29.9857 0.654291 30
    endloop
  endfacet
  facet normal 0.997859 0.0654042 0
    outer loop
      vertex 29.9857 0.654291 0
      vertex 29.9429 1.30734 0
      vertex 29.9857 0.654291 30
    endloop
  endfacet
  facet normal 0.997859 0.0654042 0
    outer loop
      vertex 29.9857 0.654291 30
      vertex 29.9429 1.30734 0
      vertex 29.9429 1.30734 30
    endloop
  endfacet
  facet normal 0.994056 0.108868 0
    outer loop
      vertex 29.9429 1.30734 0
      vertex 29.8717 1.95789 0
      vertex 29.9429 1.30734 30
    endloop
  endfacet
  facet normal 0.994056 0.108868 0
    outer loop
      vertex 29.9429 1.30734 30
      vertex 29.8717 1.95789 0
      vertex 29.8717 1.95789 30
    endloop
  endfacet
  facet normal 0.988362 0.152123 0
    outer loop
      vertex 29.8717 1.95789 0
      vertex 29.7721 2.60472 0
      vertex 29.8717 1.95789 30
    endloop
  endfacet
  facet normal 0.988362 0.152123 0
    outer loop
      vertex 29.8717 1.95789 30
      vertex 29.7721 2.60472 0
      vertex 29.7721 2.60472 30
    endloop
  endfacet
  facet normal 0.980786 0.195089 0
    outer loop
      vertex 29.7721 2.60472 0
      vertex 29.6444 3.24659 0
      vertex 29.7721 2.60472 30
    endloop
  endfacet
  facet normal 0.980786 0.195089 0
    outer loop
      vertex 29.7721 2.60472 30
      vertex 29.6444 3.24659 0
      vertex 29.6444 3.24659 30
    endloop
  endfacet
  facet normal 0.971342 0.237687 0
    outer loop
      vertex 29.6444 3.24659 0
      vertex 29.4889 3.88229 0
      vertex 29.6444 3.24659 30
    endloop
  endfacet
  facet normal 0.971342 0.237687 0
    outer loop
      vertex 29.6444 3.24659 30
      vertex 29.4889 3.88229 0
      vertex 29.4889 3.88229 30
    endloop
  endfacet
  facet normal 0.96005 0.279829 0
    outer loop
      vertex 29.4889 3.88229 0
      vertex 29.3058 4.51059 0
      vertex 29.4889 3.88229 30
    endloop
  endfacet
  facet normal 0.96005 0.279829 0
    outer loop
      vertex 29.4889 3.88229 30
      vertex 29.3058 4.51059 0
      vertex 29.3058 4.51059 30
    endloop
  endfacet
  facet normal 0.94693 0.32144 0
    outer loop
      vertex 29.3058 4.51059 0
      vertex 29.0954 5.1303 0
      vertex 29.3058 4.51059 30
    endloop
  endfacet
  facet normal 0.94693 0.32144 0
    outer loop
      vertex 29.3058 4.51059 30
      vertex 29.0954 5.1303 0
      vertex 29.0954 5.1303 30
    endloop
  endfacet
  facet normal 0.932008 0.362439 0
    outer loop
      vertex 29.0954 5.1303 0
      vertex 28.8582 5.74025 0
      vertex 29.0954 5.1303 30
    endloop
  endfacet
  facet normal 0.932008 0.362439 0
    outer loop
      vertex 29.0954 5.1303 30
      vertex 28.8582 5.74025 0
      vertex 28.8582 5.74025 30
    endloop
  endfacet
  facet normal 0.915312 0.402746 0
    outer loop
      vertex 28.8582 5.74025 0
      vertex 28.5946 6.33927 0
      vertex 28.8582 5.74025 30
    endloop
  endfacet
  facet normal 0.915312 0.402746 0
    outer loop
      vertex 28.8582 5.74025 30
      vertex 28.5946 6.33927 0
      vertex 28.5946 6.33927 30
    endloop
  endfacet
  facet normal 0.896872 0.44229 0
    outer loop
      vertex 28.5946 6.33927 0
      vertex 28.3052 6.92623 0
      vertex 28.5946 6.33927 30
    endloop
  endfacet
  facet normal 0.896872 0.44229 0
    outer loop
      vertex 28.5946 6.33927 30
      vertex 28.3052 6.92623 0
      vertex 28.3052 6.92623 30
    endloop
  endfacet
  facet normal 0.876727 0.480989 0
    outer loop
      vertex 28.3052 6.92623 0
      vertex 27.9904 7.5 0
      vertex 28.3052 6.92623 30
    endloop
  endfacet
  facet normal 0.876727 0.480989 0
    outer loop
      vertex 28.3052 6.92623 30
      vertex 27.9904 7.5 0
      vertex 27.9904 7.5 30
    endloop
  endfacet
  facet normal 0.854913 0.518772 0
    outer loop
      vertex 27.9904 7.5 0
      vertex 27.6509 8.05949 0
      vertex 27.9904 7.5 30
    endloop
  endfacet
  facet normal 0.854913 0.518772 0
    outer loop
      vertex 27.9904 7.5 30
      vertex 27.6509 8.05949 0
      vertex 27.6509 8.05949 30
    endloop
  endfacet
  facet normal 0.831469 0.555571 0
    outer loop
      vertex 27.6509 8.05949 0
      vertex 27.2873 8.60365 0
      vertex 27.6509 8.05949 30
    endloop
  endfacet
  facet normal 0.831469 0.555571 0
    outer loop
      vertex 27.6509 8.05949 30
      vertex 27.2873 8.60365 0
      vertex 27.2873 8.60365 30
    endloop
  endfacet
  facet normal 0.806445 0.591309 0
    outer loop
      vertex 27.2873 8.60365 0
      vertex 26.9003 9.13142 0
      vertex 27.2873 8.60365 30
    endloop
  endfacet
  facet normal 0.806445 0.591309 0
    outer loop
      vertex 27.2873 8.60365 30
      vertex 26.9003 9.13142 0
      vertex 26.9003 9.13142 30
    endloop
  endfacet
  facet normal 0.779883 0.625925 0
    outer loop
      vertex 26.9003 9.13142 0
      vertex 26.4907 9.64181 0
      vertex 26.9003 9.13142 30
    endloop
  endfacet
  facet normal 0.779883 0.625925 0
    outer loop
      vertex 26.9003 9.13142 30
      vertex 26.4907 9.64181 0
      vertex 26.4907 9.64181 30
    endloop
  endfacet
  facet normal 0.75184 0.659345 0
    outer loop
      vertex 26.4907 9.64181 0
      vertex 26.0592 10.1339 0
      vertex 26.4907 9.64181 30
    endloop
  endfacet
  facet normal 0.75184 0.659345 0
    outer loop
      vertex 26.4907 9.64181 30
      vertex 26.0592 10.1339 0
      vertex 26.0592 10.1339 30
    endloop
  endfacet
  facet normal 0.722365 0.691512 0
    outer loop
      vertex 26.0592 10.1339 0
      vertex 25.6066 10.6066 0
      vertex 26.0592 10.1339 30
    endloop
  endfacet
  facet normal 0.722365 0.691512 0
    outer loop
      vertex 26.0592 10.1339 30
      vertex 25.6066 10.6066 0
      vertex 25.6066 10.6066 30
    endloop
  endfacet
  facet normal 0.691513 0.722364 0
    outer loop
      vertex 25.6066 10.6066 0
      vertex 25.1339 11.0592 0
      vertex 25.6066 10.6066 30
    endloop
  endfacet
  facet normal 0.691513 0.722364 0
    outer loop
      vertex 25.6066 10.6066 30
      vertex 25.1339 11.0592 0
      vertex 25.1339 11.0592 30
    endloop
  endfacet
  facet normal 0.659344 0.751841 0
    outer loop
      vertex 25.1339 11.0592 0
      vertex 24.6418 11.4907 0
      vertex 25.1339 11.0592 30
    endloop
  endfacet
  facet normal 0.659344 0.751841 0
    outer loop
      vertex 25.1339 11.0592 30
      vertex 24.6418 11.4907 0
      vertex 24.6418 11.4907 30
    endloop
  endfacet
  facet normal 0.625924 0.779884 0
    outer loop
      vertex 24.6418 11.4907 0
      vertex 24.1314 11.9003 0
      vertex 24.6418 11.4907 30
    endloop
  endfacet
  facet normal 0.625924 0.779884 0
    outer loop
      vertex 24.6418 11.4907 30
      vertex 24.1314 11.9003 0
      vertex 24.1314 11.9003 30
    endloop
  endfacet
  facet normal 0.591309 0.806445 0
    outer loop
      vertex 24.1314 11.9003 0
      vertex 23.6036 12.2873 0
      vertex 24.1314 11.9003 30
    endloop
  endfacet
  facet normal 0.591309 0.806445 0
    outer loop
      vertex 24.1314 11.9003 30
      vertex 23.6036 12.2873 0
      vertex 23.6036 12.2873 30
    endloop
  endfacet
  facet normal 0.555571 0.831469 0
    outer loop
      vertex 23.6036 12.2873 0
      vertex 23.0595 12.6509 0
      vertex 23.6036 12.2873 30
    endloop
  endfacet
  facet normal 0.555571 0.831469 0
    outer loop
      vertex 23.6036 12.2873 30
      vertex 23.0595 12.6509 0
      vertex 23.0595 12.6509 30
    endloop
  endfacet
  facet normal 0.518773 0.854912 0
    outer loop
      vertex 23.0595 12.6509 0
      vertex 22.5 12.9904 0
      vertex 23.0595 12.6509 30
    endloop
  endfacet
  facet normal 0.518773 0.854912 0
    outer loop
      vertex 23.0595 12.6509 30
      vertex 22.5 12.9904 0
      vertex 22.5 12.9904 30
    endloop
  endfacet
  facet normal 0.480989 0.876727 0
    outer loop
      vertex 22.5 12.9904 0
      vertex 21.9262 13.3052 0
      vertex 22.5 12.9904 30
    endloop
  endfacet
  facet normal 0.480989 0.876727 0
    outer loop
      vertex 22.5 12.9904 30
      vertex 21.9262 13.3052 0
      vertex 21.9262 13.3052 30
    endloop
  endfacet
  facet normal 0.442289 0.896873 0
    outer loop
      vertex 21.9262 13.3052 0
      vertex 21.3393 13.5946 0
      vertex 21.9262 13.3052 30
    endloop
  endfacet
  facet normal 0.442289 0.896873 0
    outer loop
      vertex 21.9262 13.3052 30
      vertex 21.3393 13.5946 0
      vertex 21.3393 13.5946 30
    endloop
  endfacet
  facet normal 0.402747 0.915312 0
    outer loop
      vertex 21.3393 13.5946 0
      vertex 20.7403 13.8582 0
      vertex 21.3393 13.5946 30
    endloop
  endfacet
  facet normal 0.402747 0.915312 0
    outer loop
      vertex 21.3393 13.5946 30
      vertex 20.7403 13.8582 0
      vertex 20.7403 13.8582 30
    endloop
  endfacet
  facet normal 0.362439 0.932008 0
    outer loop
      vertex 20.7403 13.8582 0
      vertex 20.1303 14.0954 0
      vertex 20.7403 13.8582 30
    endloop
  endfacet
  facet normal 0.362439 0.932008 0
    outer loop
      vertex 20.7403 13.8582 30
      vertex 20.1303 14.0954 0
      vertex 20.1303 14.0954 30
    endloop
  endfacet
  facet normal 0.32144 0.94693 0
    outer loop
      vertex 20.1303 14.0954 0
      vertex 19.5106 14.3058 0
      vertex 20.1303 14.0954 30
    endloop
  endfacet
  facet normal 0.32144 0.94693 0
    outer loop
      vertex 20.1303 14.0954 30
      vertex 19.5106 14.3058 0
      vertex 19.5106 14.3058 30
    endloop
  endfacet
  facet normal 0.279828 0.96005 0
    outer loop
      vertex 19.5106 14.3058 0
      vertex 18.8823 14.4889 0
      vertex 19.5106 14.3058 30
    endloop
  endfacet
  facet normal 0.279828 0.96005 0
    outer loop
      vertex 19.5106 14.3058 30
      vertex 18.8823 14.4889 0
      vertex 18.8823 14.4889 30
    endloop
  endfacet
  facet normal 0.237687 0.971342 0
    outer loop
      vertex 18.8823 14.4889 0
      vertex 18.2466 14.6444 0
      vertex 18.8823 14.4889 30
    endloop
  endfacet
  facet normal 0.237687 0.971342 0
    outer loop
      vertex 18.8823 14.4889 30
      vertex 18.2466 14.6444 0
      vertex 18.2466 14.6444 30
    endloop
  endfacet
  facet normal 0.19509 0.980785 0
    outer loop
      vertex 18.2466 14.6444 0
      vertex 17.6047 14.7721 0
      vertex 18.2466 14.6444 30
    endloop
  endfacet
  facet normal 0.19509 0.980785 0
    outer loop
      vertex 18.2466 14.6444 30
      vertex 17.6047 14.7721 0
      vertex 17.6047 14.7721 30
    endloop
  endfacet
  facet normal 0.152123 0.988362 0
    outer loop
      vertex 17.6047 14.7721 0
      vertex 16.9579 14.8717 0
      vertex 17.6047 14.7721 30
    endloop
  endfacet
  facet normal 0.152123 0.988362 0
    outer loop
      vertex 17.6047 14.7721 30
      vertex 16.9579 14.8717 0
      vertex 16.9579 14.8717 30
    endloop
  endfacet
  facet normal 0.108868 0.994056 0
    outer loop
      vertex 16.9579 14.8717 0
      vertex 16.3073 14.9429 0
      vertex 16.9579 14.8717 30
    endloop
  endfacet
  facet normal 0.108868 0.994056 0
    outer loop
      vertex 16.9579 14.8717 30
      vertex 16.3073 14.9429 0
      vertex 16.3073 14.9429 30
    endloop
  endfacet
  facet normal 0.0654028 0.997859 0
    outer loop
      vertex 16.3073 14.9429 0
      vertex 15.6543 14.9857 0
      vertex 16.3073 14.9429 30
    endloop
  endfacet
  facet normal 0.0654028 0.997859 0
    outer loop
      vertex 16.3073 14.9429 30
      vertex 15.6543 14.9857 0
      vertex 15.6543 14.9857 30
    endloop
  endfacet
  facet normal 0.0218142 0.999762 0
    outer loop
      vertex 15.6543 14.9857 0
      vertex 15 15 0
      vertex 15.6543 14.9857 30
    endloop
  endfacet
  facet normal 0.0218142 0.999762 0
    outer loop
      vertex 15.6543 14.9857 30
      vertex 15 15 0
      vertex 15 15 30
    endloop
  endfacet
  facet normal 0 1 0
    outer loop
      vertex 13 15 30
      vertex 15 15 30
      vertex 13 15 0
    endloop
  endfacet
  facet normal 0 1 0
    outer loop
      vertex 15 15 30
      vertex 15 15 0
      vertex 13 15 0
    endloop
  endfacet
endsolid Onshape
